<?xml version="1.0" encoding="UTF-8"?>
<svg id="Layer_1" xmlns="http://www.w3.org/2000/svg" version="1.1" viewBox="0 0 249.69 100">
  <!-- Generator: Adobe Illustrator 30.0.0, SVG Export Plug-In . SVG Version: 2.1.1 Build 123)  -->
  <defs>
    <style>
      .st0 {
        fill: #fbfbef;
      }
    </style>
  </defs>
  <g>
    <path class="st0" d="M135.29,99.35c-1.06,0-1.98-.23-2.76-.69-.77-.46-1.37-1.1-1.78-1.93-.42-.82-.62-1.78-.62-2.86s.21-2.04.62-2.87c.41-.83,1.01-1.48,1.78-1.94.77-.47,1.69-.7,2.76-.7,1.29,0,2.34.32,3.15.96.81.64,1.32,1.53,1.53,2.67h-2.19c-.12-.58-.39-1.03-.82-1.35-.43-.32-.99-.49-1.7-.49-.65,0-1.2.15-1.67.45-.47.3-.82.73-1.08,1.28-.25.56-.38,1.22-.38,1.99s.13,1.43.38,1.98c.25.55.61.98,1.08,1.28.47.3,1.02.45,1.67.45.71,0,1.27-.15,1.69-.46.42-.3.7-.74.83-1.32h2.17c-.19,1.12-.7,2-1.51,2.62-.81.62-1.86.93-3.15.93Z"/>
    <path class="st0" d="M149.05,99.35c-1.05,0-1.98-.23-2.78-.7-.8-.47-1.42-1.11-1.87-1.93-.45-.82-.68-1.78-.68-2.87s.23-2.04.68-2.86c.45-.82,1.08-1.47,1.87-1.94.8-.47,1.73-.7,2.78-.7s1.99.23,2.79.7c.79.47,1.42,1.11,1.87,1.94.45.82.68,1.78.68,2.86s-.23,2.05-.68,2.87c-.45.82-1.07,1.46-1.87,1.93-.79.47-1.72.7-2.79.7ZM149.06,97.58c.67,0,1.25-.15,1.75-.45.5-.3.88-.73,1.15-1.28.27-.56.41-1.22.41-1.99s-.14-1.43-.41-1.99c-.27-.56-.66-.98-1.15-1.28-.5-.3-1.08-.45-1.75-.45s-1.25.15-1.75.45c-.5.3-.89.73-1.16,1.28-.27.56-.41,1.22-.41,1.99s.14,1.43.41,1.99c.27.56.66.98,1.16,1.28.5.3,1.09.45,1.75.45Z"/>
    <path class="st0" d="M158.69,99.17v-10.63h1.97l4.96,7.44v-7.44h1.97v10.63h-1.97l-4.96-7.42v7.42h-1.97Z"/>
    <path class="st0" d="M176.13,99.35c-.5,0-.99-.07-1.47-.2-.49-.14-.93-.35-1.34-.65-.4-.3-.74-.68-1.01-1.15-.27-.47-.43-1.03-.48-1.69h1.82c.08.52.25.92.51,1.21.26.29.57.5.93.61.36.12.72.17,1.07.17.39,0,.75-.06,1.05-.18s.55-.3.73-.52c.18-.23.27-.49.27-.8s-.09-.59-.26-.84c-.17-.25-.54-.42-1.11-.52l-1.81-.33c-.87-.16-1.55-.51-2.04-1.04-.49-.53-.74-1.16-.74-1.89,0-.67.17-1.23.5-1.7.33-.47.78-.82,1.35-1.08.57-.25,1.19-.38,1.87-.38s1.35.12,1.91.36c.57.24,1.03.61,1.38,1.12.35.5.57,1.15.64,1.94h-1.85c-.06-.46-.19-.81-.4-1.06-.21-.25-.46-.42-.74-.52-.29-.1-.58-.15-.89-.15-.28,0-.58.05-.88.14-.3.09-.56.24-.76.45-.2.21-.3.49-.3.84,0,.3.11.57.34.81.23.24.59.4,1.1.49l1.67.3c.89.16,1.59.48,2.1.95s.77,1.16.77,2.06c0,.54-.11,1-.34,1.4-.23.4-.53.74-.9,1.02-.37.28-.79.49-1.26.63-.47.14-.94.21-1.43.21Z"/>
    <path class="st0" d="M188.49,99.35c-.78,0-1.48-.15-2.11-.46-.63-.31-1.13-.78-1.5-1.41-.37-.63-.56-1.43-.56-2.39v-6.54h1.97v6.56c0,.82.2,1.43.6,1.84.4.4.95.61,1.65.61s1.25-.2,1.65-.61c.4-.4.6-1.02.6-1.84v-6.56h1.97v6.54c0,.96-.19,1.76-.58,2.39-.38.63-.9,1.1-1.55,1.41-.65.31-1.36.46-2.14.46Z"/>
    <path class="st0" d="M197.39,99.17v-10.63h1.97v9.08h4.71v1.55h-6.68Z"/>
    <path class="st0" d="M209.41,99.17v-9.03h-3.11v-1.59h8.18v1.59h-3.1v9.03h-1.97Z"/>
    <path class="st0" d="M218.47,99.17v-10.63h1.97v10.63h-1.97Z"/>
    <path class="st0" d="M225.21,99.17v-10.63h1.97l4.96,7.44v-7.44h1.97v10.63h-1.97l-4.96-7.42v7.42h-1.97Z"/>
    <path class="st0" d="M243.9,99.35c-1.15,0-2.14-.23-2.95-.68-.81-.45-1.44-1.08-1.87-1.9-.43-.81-.65-1.76-.65-2.85s.21-2.06.65-2.9c.43-.84,1.04-1.5,1.84-1.97.79-.47,1.74-.71,2.83-.71,1.25,0,2.29.3,3.11.9.82.6,1.35,1.42,1.59,2.47h-2.22c-.16-.49-.45-.87-.87-1.14-.42-.27-.96-.41-1.62-.41s-1.29.15-1.78.46c-.49.3-.87.74-1.13,1.3s-.39,1.23-.39,2.01.14,1.42.41,1.97c.27.54.67.96,1.18,1.25.51.29,1.14.44,1.87.44.88,0,1.58-.25,2.09-.74.51-.5.77-1.18.78-2.06h-2.96v-1.49h4.95v.85c0,1.14-.21,2.1-.63,2.87-.42.77-.99,1.35-1.72,1.74-.73.39-1.56.58-2.5.58Z"/>
  </g>
  <g>
    <path class="st0" d="M124.07,46.29c-2.43-3.98-6.29-8.13-11.58-12.43-4.94-3.95-8.39-7.3-10.37-10.05-1.98-2.75-2.96-5.64-2.96-8.68,0-3.6.9-6.38,2.7-8.36,1.8-1.97,4.21-2.96,7.25-2.96s5.17,1.25,6.82,3.76c1.66,2.5,3.26,6.47,4.81,11.9l.74,2.64c.28.99.74,1.48,1.38,1.48.92,0,1.38-.6,1.38-1.8V5.83c0-.56-.12-1.02-.37-1.38-.25-.35-.58-.67-1.01-.95-1.27-.92-2.89-1.62-4.87-2.12-1.98-.49-4.02-.74-6.14-.74-5.64,0-10.28,1.57-13.91,4.71-3.63,3.14-5.45,7.32-5.45,12.54,0,3.95,1.2,7.67,3.6,11.16,2.4,3.49,6.21,7.11,11.43,10.84,4.72,3.53,8.16,7.09,10.31,10.68,2.15,3.6,3.23,7.48,3.23,11.64s-1.04,7.64-3.12,10c-2.08,2.36-4.22,3.54-6.96,3.54-6.12,0-10.43-4.13-12.83-14.22l-.95-3.57c-.35-1.49-.99-2.11-1.97-1.88-.79.18-.99,1.12-.99,2.85,0,9.02-.79,13.32-5.75,13.32-1.48,0-2.95-1.48-2.95-4.44v-32.37c0-8.11-3.88-12.17-10.86-12.17-7.82,0-15.26,7.21-16.56,15.47-.47,3,1.15,4.52,2.84,4.52,1.95,0,4.85-1.42,5.54-5.73.74-4.62,1.21-11.09,6.42-11.09s5.42,5.26,5.42,9.42v9.63c0,.92-.46,1.52-1.38,1.8-4.23,1.34-8.01,3.1-11.32,5.29-3.32,2.19-5.92,4.64-7.83,7.35-1.9,2.72-2.86,5.59-2.86,8.62s.95,5.59,2.86,7.46c1.9,1.87,4.34,2.8,7.3,2.8,2.61,0,4.8-.6,6.56-1.8,1.76-1.2,3.49-2.96,5.18-5.29.49-.7,1.01-1.04,1.53-1.01.53.04.83.41.9,1.11.35,1.9,1.02,3.54,2.01,4.92.08.11.16.21.25.3,3.94,3.96,9.93.31,11.76-1.91.49-.6,1.4-.66,1.96-.12.88.83,2.26,1.81,3.91,2.31,1.51.45,3.14.78,4.87,1.06,1.73.28,3.3.41,4.71.42,2.98.04,6.01-.83,9.08-2.49,3.07-1.66,5.48-3.97,7.25-6.93,1.76-2.96,2.64-6.42,2.64-10.37,0-4.51-1.22-8.76-3.65-12.75ZM78.33,59.36c0,2.75-.49,5.22-1.48,7.41-.99,2.19-2.26,3.93-3.81,5.24-1.55,1.31-3.24,1.96-5.08,1.96-3.6,0-5.4-2.43-5.4-7.3,0-3.81,1.18-7.07,3.54-9.79,2.36-2.71,5.69-4.85,10-6.4,1.48-.56,2.22-.18,2.22,1.16v7.72Z"/>
    <path class="st0" d="M190.99,78.83c-.63,0-1.09-.39-1.38-1.16l-14.07-46.65c-.49-1.69-.97-2.79-1.43-3.28-.46-.49-1.18-.85-2.17-1.06l-1.59-.32c-.92-.21-1.38-.67-1.38-1.38s.49-1.06,1.48-1.06h17.46c.99,0,1.48.35,1.48,1.06,0,.78-.46,1.23-1.38,1.38l-1.69.21c-1.69.21-2.75.62-3.17,1.22-.42.6-.42,1.68,0,3.23l8.78,30.57c.21.78.56,1.16,1.06,1.16s.85-.39,1.06-1.16l8.57-28.67c.56-1.9.72-3.33.48-4.28-.25-.95-1.25-1.57-3.01-1.85l-2.22-.42c-.92-.21-1.38-.67-1.38-1.38s.49-1.06,1.48-1.06h13.44c.99,0,1.48.39,1.48,1.16,0,.71-.42,1.2-1.27,1.48l-.95.32c-1.06.35-1.96.99-2.7,1.9-.74.92-1.46,2.5-2.17,4.76l-13.44,44.12c-.28.78-.74,1.16-1.38,1.16Z"/>
    <path class="st0" d="M247.86,62.43c-.92,0-1.38.57-1.38,1.69,0,2.96-.39,5.06-1.16,6.29-.78,1.23-1.95,1.85-2.87,1.85-1.48,0-2.68-1.48-2.68-4.44v-32.37h0c0-8.11-3.88-12.17-10.86-12.17-7.82,0-15.26,7.21-16.56,15.47-.47,3,1.15,4.52,2.84,4.52,1.95,0,4.85-1.42,5.54-5.73.74-4.62,1.21-11.09,6.42-11.09s5.42,5.26,5.42,9.42h0v9.63c0,.92-.46,1.52-1.38,1.8-4.23,1.34-8.01,3.1-11.32,5.29-3.32,2.19-5.92,4.64-7.83,7.35-1.9,2.72-2.86,5.59-2.86,8.62s.95,5.59,2.86,7.46c1.9,1.87,4.34,2.8,7.3,2.8,2.61,0,4.8-.6,6.56-1.8,1.76-1.2,3.49-2.96,5.18-5.29.49-.7,1.01-1.04,1.53-1.01.53.04.83.41.9,1.11.35,1.9,1.02,3.54,2.01,4.92.99,1.38,2.78,2.06,4.47,2.06,2.26,0,4.62-1.15,6.41-3.44,1.8-2.29,2.7-6.01,2.7-11.16,0-1.2-.42-1.8-1.27-1.8ZM232.58,59.36c0,2.75-.49,5.22-1.48,7.41-.99,2.19-2.26,3.93-3.81,5.24-1.55,1.31-3.24,1.96-5.08,1.96-3.6,0-5.4-2.43-5.4-7.3,0-3.81,1.18-7.07,3.54-9.79,2.36-2.71,5.69-4.85,10-6.4,1.48-.56,2.22-.18,2.22,1.16v7.72Z"/>
    <path class="st0" d="M136.89,33.86c0-1.27-.2-2.15-.58-2.64-.39-.49-1.08-.78-2.06-.85l-2.43-.32c-.78-.14-1.16-.56-1.16-1.27s.39-1.13,1.16-1.27c1.97-.42,3.67-.92,5.08-1.48,1.41-.56,2.57-1.13,3.49-1.69,1.13-.7,1.97-1.06,2.54-1.06.78,0,1.16.57,1.16,1.69v45.81c0,3.38,2.05,4.56,6.58,4.56h0c4.53,0,6.58-1.18,6.58-4.56V11.23c0-1.27-.2-2.15-.58-2.64-.39-.49-1.08-.78-2.06-.85l-2.43-.32c-.78-.14-1.16-.56-1.16-1.27s.39-1.13,1.16-1.27c1.97-.42,3.67-.92,5.08-1.48,1.41-.56,2.57-1.13,3.49-1.69,1.13-.7,1.97-1.06,2.54-1.06.78,0,1.16.57,1.16,1.69v68.45c0,1.48.23,2.52.69,3.12.46.6,1.43,1.01,2.91,1.22l2.43.32c.78.14,1.16.57,1.16,1.27,0,.78-.42,1.16-1.27,1.16h-39.4c-.85,0-1.27-.39-1.27-1.16,0-.7.39-1.13,1.16-1.27l2.43-.32c1.48-.21,2.45-.62,2.91-1.22.46-.6.69-1.64.69-3.12v-36.92Z"/>
    <ellipse class="st0" cx="140.48" cy="11.87" rx="4.92" ry="5.21"/>
    <path class="st0" d="M47.12,20.01c-2.19-5.78-5.29-10.28-9.31-13.49-4.02-3.21-8.78-4.81-14.28-4.81H2.16c-1.06,0-1.59.39-1.59,1.16,0,.63.46,1.06,1.38,1.27l2.43.42c1.48.28,2.45.67,2.91,1.16.46.49.69,1.48.69,2.96v62.21c0,1.48-.23,2.47-.69,2.96-.46.49-1.43.88-2.91,1.16l-2.43.42c-.92.21-1.38.63-1.38,1.27,0,.78.53,1.16,1.59,1.16h21.37c5.5,0,10.26-1.6,14.28-4.81,4.02-3.21,7.12-7.71,9.31-13.49,2.19-5.78,3.28-12.17,3.28-19.78s-1.09-14-3.28-19.78ZM37.44,65.76c-3.14,6.24-7.78,9.36-13.91,9.36-5.36,0-8.04-2.58-8.04-7.72V12.18c0-5.15,2.68-7.72,8.04-7.72,6.14,0,10.77,3.12,13.91,9.36,3.14,6.24,4.71,14.69,4.71,25.97s-1.57,19.73-4.71,25.97Z"/>
  </g>
</svg>